<svg width="38" height="38" viewBox="0 0 100 100" fill="none" xmlns="http://www.w3.org/2000/svg">
    {/* Rounded square container box using your exact deep surface tint */}
    <rect width="100" height="100" rx="22" fill="#112926" stroke="#1e4d46" strokeWidth="1.5" />

    {/* GitHub Matrix style grid matching your card visual */}
    <g opacity="0.85">
        {/* Darker inactive cells */}
        <rect x="18" y="18" width="12" height="12" rx="2.5" fill="#14322e" />
        <rect x="36" y="18" width="12" height="12" rx="2.5" fill="#14322e" />
        <rect x="54" y="18" width="12" height="12" rx="2.5" fill="#0d9488" opacity="0.4" />
        <rect x="70" y="18" width="12" height="12" rx="2.5" fill="#2dd4bf" />

        <rect x="18" y="36" width="12" height="12" rx="2.5" fill="#0d9488" opacity="0.6" />
        <rect x="36" y="36" width="12" height="12" rx="2.5" fill="#14322e" />
        <rect x="54" y="36" width="12" height="12" rx="2.5" fill="#14322e" />
        <rect x="70" y="36" width="12" height="12" rx="2.5" fill="#0d9488" opacity="0.3" />

        <rect x="18" y="54" width="12" height="12" rx="2.5" fill="#14322e" />
        <rect x="36" y="54" width="12" height="12" rx="2.5" fill="#2dd4bf" />
        <rect x="54" y="54" width="12" height="12" rx="2.5" fill="#14322e" />
        <rect x="70" y="54" width="12" height="12" rx="2.5" fill="#0d9488" opacity="0.7" />

        <rect x="18" y="70" width="12" height="12" rx="2.5" fill="#0d9488" opacity="0.5" />
        <rect x="36" y="70" width="12" height="12" rx="2.5" fill="#14322e" />
        <rect x="54" y="70" width="12" height="12" rx="2.5" fill="#2dd4bf" />
        <rect x="70" y="70" width="12" height="12" rx="2.5" fill="#14322e" />
    </g>

    {/* Dynamic overlaying electric pulse bolt */}
    <path d="M55 15L28 53H47L40 85L72 41H50L55 15Z" fill="#2dd4bf" stroke="#112926" strokeWidth="3" strokeLinejoin="round" />
</svg>